<svg width="133" height="27" viewBox="0 0 133 27" fill="none" xmlns="http://www.w3.org/2000/svg">
<g clip-path="url(#clip0_10487_54125)">
<path d="M17.098 15.1231C16.7929 17.0895 15.2509 18.312 13.0709 18.312C10.3191 18.312 8.54134 16.2203 8.54134 12.9841C8.54134 9.92549 10.2921 8.02915 13.1113 8.02915C15.1046 8.02915 16.5984 9.16971 16.9161 10.9348L16.9546 11.142H20.6996L20.6631 10.8559C20.1741 6.98725 17.1721 4.38843 13.195 4.38843H13.0738C10.7869 4.38843 8.6886 5.25964 7.16496 6.84123C5.61438 8.45144 4.777 10.6714 4.81261 13.0847C4.78181 15.575 5.63748 17.8522 7.21886 19.4979C8.74539 21.0825 10.8398 21.9547 13.119 21.9547H13.2364C17.1182 21.9547 20.2482 19.1792 20.8479 15.205L20.8921 14.909H17.1326L17.098 15.1231Z" fill="white"/>
<path d="M40.4084 18.469C40.3863 18.101 40.2766 17.2012 40.1832 16.5362C39.982 15.2427 39.5172 14.4642 38.6644 14.033C39.9946 13.2319 40.6933 11.8486 40.6933 9.99765C40.6933 6.60655 38.6105 4.66089 34.9799 4.66089H27.3242V21.5602H30.9769V15.3354H34.1791C36.1224 15.4341 36.1282 15.4716 36.4554 17.5425L36.5767 18.4956C36.7336 19.8098 36.8385 20.6781 37.1638 21.4122L37.2293 21.5602H40.9753V21.0471L40.9561 20.9988C40.5788 20.1058 40.5066 19.5938 40.4084 18.469ZM30.9759 8.30062H34.3514C35.5314 8.30062 36.9386 8.6203 36.9386 10.1437C36.9386 11.3799 36.1022 12.0065 34.4525 12.0065H30.9769L30.9759 8.30062Z" fill="white"/>
<path d="M45.9247 14.775H54.3052V11.301H45.9247V8.30062H55.0135V4.66089H42.2729V21.5602H55.1146V17.9204H45.9247V14.775Z" fill="white"/>
<path d="M63.3538 4.66089L56.1533 21.5602H60.0996L61.5154 18.1365H69.0421L70.4551 21.5602H74.4013L67.1989 4.66089H63.3538ZM63.0217 14.4968L65.2942 9.12447L67.5329 14.4968H63.0217Z" fill="white"/>
<path d="M86.8885 4.66089H71.1729V8.32233H77.2048V21.5602H80.8566V8.32233H86.8885V4.66089Z" fill="white"/>
<path d="M95.1054 4.32837H94.8638C92.4951 4.32837 90.34 5.20944 88.8 6.80978C87.26 8.41012 86.4323 10.6172 86.4583 13.0237C86.4284 15.512 87.2793 17.7813 88.8539 19.4161C90.3939 21.0135 92.5278 21.8936 94.8647 21.8936H95.1034C97.3836 21.8936 99.4751 21.0273 100.989 19.4546C102.569 17.8148 103.42 15.5317 103.395 13.0306C103.425 10.5965 102.592 8.37361 101.049 6.7713C99.5309 5.19267 97.4211 4.32837 95.1102 4.32837H95.1054ZM94.985 18.2529C92.163 18.2529 90.1928 16.0616 90.1928 12.925C90.1928 10.0085 92.163 7.97106 94.985 7.97106C97.7359 7.97106 99.657 10.0085 99.657 12.925C99.657 16.0625 97.732 18.2529 94.985 18.2529Z" fill="white"/>
<path d="M117.651 18.469C117.63 18.1069 117.522 17.2238 117.426 16.5362C117.225 15.2427 116.76 14.4642 115.907 14.033C117.237 13.2319 117.935 11.8486 117.935 9.99765C117.935 6.60655 115.853 4.66089 112.222 4.66089H104.567V21.5602H108.219V15.3354H111.421C113.364 15.4341 113.371 15.4716 113.698 17.5425L113.819 18.4956C113.976 19.8098 114.081 20.6781 114.406 21.4122L114.472 21.5602H118.218V21.0471L118.199 20.9988C117.821 20.1049 117.749 19.5928 117.651 18.469ZM108.219 8.30062H111.595C112.775 8.30062 114.181 8.6203 114.181 10.1437C114.181 11.3799 113.346 12.0065 111.697 12.0065H108.219V8.30062Z" fill="white"/>
<path d="M131.643 13.373C130.997 12.6646 130.295 12.2078 129.485 11.975C128.715 11.753 127.695 11.5606 126.35 11.383C125.442 11.2754 124.749 11.1442 124.329 11.0554C122.981 10.7377 122.82 10.0688 122.82 9.6011C122.82 8.13002 124.304 7.82514 125.548 7.82514C127.256 7.82514 128.267 8.59867 128.399 10.0027L128.42 10.2316H132.373V9.978C132.373 6.59973 129.655 4.33044 125.609 4.33044C121.634 4.33044 119.064 6.4172 119.064 9.64649C119.064 10.9518 119.38 11.9602 119.996 12.636C120.564 13.3188 121.317 13.8144 122.159 14.0607C123.18 14.3398 124.22 14.5436 125.269 14.6705C126.247 14.8066 126.923 14.9359 127.312 15.0178C128.628 15.3345 128.781 15.9886 128.781 16.4524C128.781 17.6709 127.662 18.399 125.789 18.399C123.841 18.399 122.692 17.4282 122.636 15.7351L122.627 15.4914H118.599V15.7449C118.599 19.4774 121.39 21.8908 125.708 21.8908C129.867 21.8908 132.554 19.7389 132.554 16.408C132.554 15.1056 132.247 14.0864 131.637 13.3711" fill="white"/>
<path d="M12.8474 26.3434C5.76345 26.3434 0 20.4324 0 13.1697C0 5.90705 5.76345 0 12.8474 0C19.9314 0 25.6987 5.90803 25.6987 13.1697C25.6987 20.4315 19.9324 26.3434 12.8474 26.3434ZM12.8474 2.53765C10.7954 2.53765 8.78941 3.16146 7.08322 4.33019C5.37704 5.49891 4.04728 7.16006 3.26212 9.10353C2.47696 11.047 2.27167 13.1855 2.67222 15.2486C3.07277 17.3117 4.06116 19.2066 5.51239 20.6939C6.96361 22.1811 8.81249 23.1937 10.8252 23.6038C12.8379 24.0138 14.924 23.8028 16.8197 22.9974C18.7154 22.192 20.3355 20.8284 21.4752 19.0791C22.6148 17.3298 23.2228 15.2733 23.2222 13.1697C23.2192 10.3502 22.1251 7.64706 20.1801 5.65344C18.2351 3.65981 15.598 2.53855 12.8474 2.53568" fill="white"/>
</g>
<defs>
<clipPath id="clip0_10487_54125">
<rect width="132.56" height="27" fill="white"/>
</clipPath>
</defs>
</svg>
